<svg id="Шар_1" data-name="Шар 1" xmlns="http://www.w3.org/2000/svg" xmlns:xlink="http://www.w3.org/1999/xlink" viewBox="0 0 375 812">
  <defs>
    <style>
      .cls-1 {
        fill: url(#Градієнт_без_назви);
      }

      .cls-2 {
        fill: url(#Градієнт_без_назви_2);
      }

      .cls-3 {
        fill: url(#Градієнт_без_назви_3);
      }

      .cls-4 {
        fill: url(#Градієнт_без_назви_4);
      }

      .cls-5 {
        opacity: 0.49;
        fill: url(#Градієнт_без_назви_5);
      }

      .cls-14, .cls-19, .cls-20, .cls-23, .cls-24, .cls-25, .cls-26, .cls-5, .cls-6, .cls-7, .cls-8 {
        isolation: isolate;
      }

      .cls-6, .cls-7, .cls-8 {
        opacity: 0.76;
      }

      .cls-6 {
        fill: url(#Градієнт_без_назви_6);
      }

      .cls-7 {
        fill: url(#Градієнт_без_назви_7);
      }

      .cls-8 {
        fill: url(#Градієнт_без_назви_8);
      }

      .cls-9 {
        fill: url(#Градієнт_без_назви_9);
      }

      .cls-10 {
        fill: none;
        stroke: #7b7244;
        stroke-width: 15px;
      }

      .cls-11 {
        fill: #c4c4c4;
      }

      .cls-12 {
        fill: url(#Градієнт_без_назви_36);
      }

      .cls-13 {
        fill: url(#Градієнт_без_назви_37);
      }

      .cls-14, .cls-19, .cls-21, .cls-23, .cls-24, .cls-25, .cls-26 {
        opacity: 0.5;
      }

      .cls-14 {
        fill: url(#Градієнт_без_назви_38);
      }

      .cls-15 {
        opacity: 0.08;
      }

      .cls-16 {
        fill: url(#Градієнт_без_назви_39);
      }

      .cls-17 {
        fill: #8c0000;
      }

      .cls-18 {
        fill: #a00000;
      }

      .cls-19 {
        fill: url(#Градієнт_без_назви_44);
      }

      .cls-20, .cls-22 {
        fill: #fff;
      }

      .cls-20 {
        opacity: 0.25;
      }

      .cls-23 {
        fill: url(#Градієнт_без_назви_44-2);
      }

      .cls-24 {
        fill: url(#Градієнт_без_назви_44-3);
      }

      .cls-25 {
        fill: url(#Градієнт_без_назви_44-4);
      }

      .cls-26 {
        fill: url(#Градієнт_без_назви_44-5);
      }
    </style>
    <linearGradient id="Градієнт_без_назви" data-name="Градієнт без назви" y1="814" x2="375" y2="2" gradientTransform="matrix(1, 0, 0, -1, 0, 814)" gradientUnits="userSpaceOnUse">
      <stop offset="0" stop-color="#02274f"/>
      <stop offset="0.49" stop-color="#31013c"/>
      <stop offset="1" stop-color="#1d1144"/>
    </linearGradient>
    <linearGradient id="Градієнт_без_назви_2" data-name="Градієнт без назви 2" x1="288.6" y1="615.33" x2="351.68" y2="680.4" gradientTransform="matrix(1, 0, 0, -1, 0, 814)" gradientUnits="userSpaceOnUse">
      <stop offset="0" stop-color="#ff6200"/>
      <stop offset="0.5" stop-color="#c40f00"/>
      <stop offset="1" stop-color="#200e43" stop-opacity="0.7"/>
    </linearGradient>
    <linearGradient id="Градієнт_без_назви_3" data-name="Градієнт без назви 3" x1="192.05" y1="671.91" x2="240.29" y2="721.24" xlink:href="#Градієнт_без_назви_2"/>
    <linearGradient id="Градієнт_без_назви_4" data-name="Градієнт без назви 4" x1="19.26" y1="506.15" x2="56.89" y2="544.63" xlink:href="#Градієнт_без_назви_2"/>
    <linearGradient id="Градієнт_без_назви_5" data-name="Градієнт без назви 5" x1="160.54" y1="397.52" x2="193.75" y2="426.84" gradientTransform="matrix(1, 0, 0, -1, 0, 814)" gradientUnits="userSpaceOnUse">
      <stop offset="0" stop-color="#c10000"/>
      <stop offset="0.5" stop-color="#603700"/>
      <stop offset="1" stop-color="#200e43" stop-opacity="0.7"/>
    </linearGradient>
    <linearGradient id="Градієнт_без_назви_6" data-name="Градієнт без назви 6" x1="31.48" y1="440.71" x2="103.16" y2="526.7" gradientTransform="matrix(1, 0, 0, -1, 0, 814)" gradientUnits="userSpaceOnUse">
      <stop offset="0" stop-color="#29ff7c"/>
      <stop offset="0.5" stop-color="#0646ff"/>
      <stop offset="1" stop-color="#200e43" stop-opacity="0"/>
    </linearGradient>
    <linearGradient id="Градієнт_без_назви_7" data-name="Градієнт без назви 7" x1="280.98" y1="419.38" x2="347.53" y2="503.03" xlink:href="#Градієнт_без_назви_6"/>
    <linearGradient id="Градієнт_без_назви_8" data-name="Градієнт без назви 8" x1="57.22" y1="605.02" x2="136.04" y2="697.1" xlink:href="#Градієнт_без_назви_6"/>
    <radialGradient id="Градієнт_без_назви_9" data-name="Градієнт без назви 9" cx="-766.84" cy="948.93" r="1" gradientTransform="matrix(59.59, 87.19, 240.4, -164.3, -182263.71, 223420.88)" gradientUnits="userSpaceOnUse">
      <stop offset="0" stop-color="#0646ff"/>
      <stop offset="0.39" stop-color="#2e4893" stop-opacity="0.81"/>
      <stop offset="0.6" stop-color="#284391" stop-opacity="0.8"/>
      <stop offset="1" stop-color="#0d40d3"/>
    </radialGradient>
    <linearGradient id="Градієнт_без_назви_36" data-name="Градієнт без назви 36" x1="92.44" y1="607.15" x2="284.03" y2="496.53" gradientTransform="matrix(1, 0, 0, -1, 6.67, 819.18)" gradientUnits="userSpaceOnUse">
      <stop offset="0" stop-color="#ffd70f"/>
      <stop offset="1" stop-color="#dc0046"/>
    </linearGradient>
    <radialGradient id="Градієнт_без_назви_37" data-name="Градієнт без назви 37" cx="1826.2" cy="-1046.45" r="56.53" gradientTransform="matrix(0, 0.81, 1.32, 0, 1556.54, -1279.43)" gradientUnits="userSpaceOnUse">
      <stop offset="0" stop-color="#fff"/>
      <stop offset="1" stop-color="#fff" stop-opacity="0"/>
    </radialGradient>
    <linearGradient id="Градієнт_без_назви_38" data-name="Градієнт без назви 38" x1="131.51" y1="584.46" x2="282.87" y2="497.07" gradientTransform="matrix(1, 0, 0, -1, 6.67, 821.84)" gradientUnits="userSpaceOnUse">
      <stop offset="0" stop-color="red"/>
      <stop offset="1" stop-color="#dc0046"/>
    </linearGradient>
    <linearGradient id="Градієнт_без_назви_39" data-name="Градієнт без назви 39" x1="149.77" y1="419.12" x2="264.93" y2="352.63" gradientTransform="matrix(1, 0.08, 0.08, -1, -7.46, 660.24)" gradientUnits="userSpaceOnUse">
      <stop offset="0" stop-color="#fff"/>
      <stop offset="1" stop-color="#a0a0a0"/>
    </linearGradient>
    <linearGradient id="Градієнт_без_назви_44" data-name="Градієнт без назви 44" x1="82.62" y1="1384.21" x2="120.16" y2="1384.21" gradientTransform="matrix(0.93, 0, 0, -0.7, 140.74, 1246.38)" gradientUnits="userSpaceOnUse">
      <stop offset="0" stop-color="#fff"/>
      <stop offset="1" stop-color="#fff" stop-opacity="0.2"/>
    </linearGradient>
    <linearGradient id="Градієнт_без_назви_44-2" x1="-697.62" y1="-4.32" x2="-660.08" y2="-4.32" gradientTransform="matrix(0, 0.72, 0.69, 0, 111.2, 730.67)" xlink:href="#Градієнт_без_назви_44"/>
    <linearGradient id="Градієнт_без_назви_44-3" x1="-747.13" y1="69.56" x2="-709.59" y2="69.56" gradientTransform="matrix(0, 0.74, 0.67, 0, 71.4, 838.47)" xlink:href="#Градієнт_без_назви_44"/>
    <linearGradient id="Градієнт_без_назви_44-4" x1="-576.12" y1="-711.69" x2="-538.58" y2="-711.69" gradientTransform="matrix(0, 0.73, 0.73, 0, 796.42, 692.4)" xlink:href="#Градієнт_без_назви_44"/>
    <linearGradient id="Градієнт_без_назви_44-5" x1="-501.66" y1="1972.5" x2="-464.12" y2="1972.5" gradientTransform="matrix(0.76, 0, 0, -0.45, 597.34, 1210.24)" xlink:href="#Градієнт_без_назви_44"/>
  </defs>
  <title>Header2</title>
  <rect class="cls-1" width="375" height="812"/>
  <path class="cls-2" d="M298.29,192.67l.39-.41c.26-.28.51-.55.75-.83L354,132.62,351.23,130l-55.52,57.48c-.32.32-.66.66-1,1-.15.15-.29.31-.43.46l-.41.43h0c-3,3.44-4.59,6.78-3.58,7.73s4.25-.83,7.5-4l0,0Z"/>
  <path class="cls-3" d="M199.41,137.51l.31-.3c.2-.2.39-.41.58-.61L243,93l-2.07-2-43.44,42.61-.78.74-.33.35-.32.31v0c-2.35,2.55-3.61,5-2.85,5.77s3.28-.57,5.83-3v0Z"/>
  <path class="cls-4" d="M25,304.28l.24-.24.46-.47,33.3-34L57.39,268,23.5,301.24c-.2.18-.4.37-.6.58a3.31,3.31,0,0,0-.26.27l-.25.24h0c-1.84,2-2.82,3.94-2.23,4.5s2.56-.44,4.55-2.29h0Z"/>
  <path class="cls-5" d="M164.29,414.18l.22-.17.42-.36L195,388.26,193.92,387l-30.45,24.75c-.18.14-.36.3-.54.43l-.23.2-.23.19c-1.67,1.48-2.68,3-2.26,3.43s2.06-.26,3.83-1.63Z"/>
  <path class="cls-6" d="M38.59,367.13l.48-.52c.32-.34.62-.7.91-1l65.91-74.19-3.45-2.55L35.27,361.64c-.4.41-.8.83-1.19,1.27l-.52.59-.49.53,0,0c-3.62,4.3-5.49,8.31-4.23,9.25s5.24-1.52,9.18-5.59l0,0Z"/>
  <path class="cls-7" d="M287.85,388.75l.45-.51c.29-.32.57-.68.83-1L350,314.62l-3.34-2.35-62.11,71.31c-.37.4-.74.81-1.11,1.25l-.48.57-.46.52h0c-3.34,4.21-5,8.1-3.79,9s4.94-1.59,8.59-5.57h0Z"/>
  <path class="cls-8" d="M65.25,202.62c.18-.18.35-.36.53-.56.34-.36.67-.74,1-1.12l71.93-79.79L135,118.34,61.73,196.62c-.44.44-.88.9-1.31,1.37l-.56.63-.54.58h0c-4,4.63-6,9-4.66,10s5.67-1.59,10-6l0,0Z"/>
  <ellipse class="cls-9" cx="192.5" cy="696" rx="52.5" ry="53"/>
  <path class="cls-10" d="M230.1,659.33c18.39-18.93,29.2-13.82,18.91.26-29.22,36.39-51.76,55.8-97.43,83.6-19.44,11.83-33.62,5.26-1.84-16.56"/>
  <path class="cls-11" d="M126,690l1.12,2.76h3.64l-2.94,1.71,1.12,2.77L126,695.53l-2.94,1.71,1.12-2.77-2.93-1.71h3.63Z"/>
  <path class="cls-11" d="M278.5,619l1,2.42h3.27l-2.64,1.49,1,2.42-2.64-1.49-2.64,1.49,1-2.42-2.64-1.49h3.27Z"/>
  <path class="cls-11" d="M314.5,652l1,2.42h3.27l-2.64,1.49,1,2.42-2.64-1.49-2.64,1.49,1-2.42-2.64-1.49h3.27Z"/>
  <path class="cls-11" d="M329.5,620l1,2.42h3.27l-2.64,1.49,1,2.42-2.64-1.49-2.64,1.49,1-2.42-2.64-1.49h3.27Z"/>
  <path class="cls-11" d="M52,647l1.12,2.76h3.64l-2.94,1.71,1.12,2.77L52,652.53l-2.94,1.71,1.12-2.77-2.94-1.71h3.64Z"/>
  <path class="cls-11" d="M90.5,623l1,2.42h3.27l-2.65,1.49,1,2.42-2.64-1.49-2.64,1.49,1-2.42-2.65-1.49h3.27Z"/>
  <path class="cls-11" d="M73.5,691l1,2.42h3.27l-2.65,1.49,1,2.42-2.64-1.49-2.64,1.49,1-2.42-2.65-1.49h3.27Z"/>
  <path class="cls-11" d="M294.5,702l1,2.76h3.27l-2.64,1.71,1,2.77-2.64-1.71-2.64,1.71,1-2.77-2.64-1.71h3.27Z"/>
  <path class="cls-11" d="M324.5,691l1,2.42h3.27l-2.64,1.49,1,2.42-2.64-1.49-2.64,1.49,1-2.42-2.64-1.49h3.27Z"/>
  <path class="cls-11" d="M315.5,745l1,2.76h3.27l-2.64,1.71,1,2.77-2.64-1.71-2.64,1.71,1-2.77-2.64-1.71h3.27Z"/>
  <path class="cls-11" d="M257.5,689l1,2.76h3.27l-2.64,1.71,1,2.77-2.64-1.71-2.65,1.71,1-2.77-2.65-1.71h3.27Z"/>
  <path class="cls-11" d="M278.5,661l1,2.42h3.27l-2.64,1.49,1,2.42-2.64-1.49-2.64,1.49,1-2.42-2.64-1.49h3.27Z"/>
  <path class="cls-11" d="M253.5,737l1,2.76h3.27l-2.65,1.71,1,2.77-2.64-1.71-2.65,1.71,1-2.77-2.65-1.71h3.27Z"/>
  <path class="cls-11" d="M232,757l1.12,2.76h3.64l-2.94,1.71,1.12,2.77L232,762.53l-2.94,1.71,1.12-2.77-2.94-1.71h3.64Z"/>
  <path class="cls-11" d="M222.5,619l1,2.76h3.27l-2.65,1.71,1,2.77-2.65-1.71-2.65,1.71,1-2.77-2.65-1.71h3.27Z"/>
  <path class="cls-11" d="M152.5,639l1,2.76h3.27l-2.65,1.71,1,2.77-2.65-1.71-2.65,1.71,1-2.77-2.65-1.71h3.27Z"/>
  <path class="cls-11" d="M169,761l1.12,2.76h3.64l-2.94,1.71,1.12,2.77L169,766.53l-2.94,1.71,1.12-2.77-2.94-1.71h3.64Z"/>
  <path class="cls-11" d="M109.5,723l1,2.76h3.27l-2.64,1.71,1,2.77-2.64-1.71-2.64,1.71,1-2.77-2.64-1.71h3.27Z"/>
  <path class="cls-11" d="M97,660l1.12,2.76h3.63l-2.93,1.71,1.12,2.77L97,665.53l-2.94,1.71,1.12-2.77-2.94-1.71h3.64Z"/>
  <path class="cls-11" d="M41,694l1.12,2.76h3.64l-2.94,1.71,1.12,2.77L41,699.53l-2.94,1.71,1.12-2.77-2.94-1.71h3.64Z"/>
  <path class="cls-11" d="M62,749l1.12,2.76h3.64l-2.94,1.71,1.12,2.77L62,754.53l-2.94,1.71,1.12-2.77-2.94-1.71h3.64Z"/>
  <g>
    <ellipse class="cls-12" cx="194.9" cy="267.34" rx="109.21" ry="114.67"/>
    <ellipse class="cls-13" cx="173.56" cy="202.01" rx="74.76" ry="45.93" transform="translate(-53.35 62.57) rotate(-17.76)"/>
    <path class="cls-14" d="M304.12,267.34c-.06,9-.58,36.59-18.45,63.78-20,30.46-55.52,50.88-90.77,50.88a110.75,110.75,0,0,1-40.36-8.09,121.89,121.89,0,0,1-29.23-18.22c-4.54-3.94-8.68-8.4-8.68-8.4a112.28,112.28,0,0,1-7.6-9.12c-1.3-1.72-3.43-4.67-5.78-8.48a116.1,116.1,0,0,1-8.62-16.88c12,12.43,25.75,23.12,35.55,19.33,19.47-7.53,4.93-65,24.63-73.9,22.38-10.11,59.73,55.66,86.22,45.46,20.55-7.91,24.63-55.85,26.1-73.6,2.19-26.23-3.46-42.25,1.47-44,6.28-2.21,22.1,21,29.71,44.25A117,117,0,0,1,304.12,267.34Z"/>
    <g class="cls-15">
      <path class="cls-16" d="M266.19,179.92a117.06,117.06,0,0,1,27.74,86.61c-5.29,63.11-58.29,110.19-118.41,105.18a105.27,105.27,0,0,1-61.76-26.83c17.84,20.59,42.9,34.37,71.52,36.77,60.11,5,113.12-42,118.41-105.16C306.89,238.28,291.87,203,266.19,179.92Z"/>
    </g>
    <g>
      <ellipse class="cls-17" cx="281.47" cy="228.49" rx="7.62" ry="17.29" transform="translate(-32.06 46.46) rotate(-8.93)"/>
      <path class="cls-18" d="M278.79,211.43a3.7,3.7,0,0,0-1.13.39c3.81.7,7.68,7.34,9,15.88s-.31,16-3.72,17.87a3.4,3.4,0,0,0,1.19,0c4.15-.65,6.33-8.82,4.85-18.26S283,210.78,278.79,211.43Z"/>
    </g>
    <ellipse class="cls-19" cx="233.71" cy="277.44" rx="17.37" ry="23.84" transform="translate(-57.59 61.26) rotate(-13.31)"/>
    <g>
      <ellipse class="cls-17" cx="233.71" cy="276.78" rx="15.7" ry="19.82" transform="translate(-36.92 35.97) rotate(-8.16)"/>
      <path class="cls-18" d="M238.36,258.35c4.75,2.9,8.4,8.54,9.39,15.41,1.55,10.83-4.16,20.61-12.73,21.84a13.18,13.18,0,0,1-7.47-1.19,13.44,13.44,0,0,0,9,2c8.58-1.23,14.28-11,12.73-21.85C248.16,267,243.81,260.9,238.36,258.35Z"/>
    </g>
    <g>
      <ellipse class="cls-20" cx="172.1" cy="197.04" rx="53.4" ry="31.07" transform="translate(-64.72 85.87) rotate(-23.72)"/>
      <g class="cls-21">
        <ellipse class="cls-22" cx="173.56" cy="182.04" rx="25.72" ry="7.61" transform="translate(-67.02 108.69) rotate(-29.41)"/>
        <ellipse class="cls-22" cx="140.94" cy="200.18" rx="6.63" ry="7.69" transform="translate(-41.7 37.15) rotate(-13.1)"/>
      </g>
    </g>
    <ellipse class="cls-23" cx="108.22" cy="241.86" rx="23.58" ry="13.53" transform="translate(-152.59 288.58) rotate(-76.05)"/>
    <g>
      <ellipse class="cls-17" cx="108.22" cy="239.96" rx="20.47" ry="11.02" transform="translate(-152.06 279.3) rotate(-74.32)"/>
      <path class="cls-18" d="M118,223.83c1.91,4.33,2.12,10.94.18,17.84-3.06,10.87-10.28,18.36-16.13,16.72a7.37,7.37,0,0,1-4.27-3.58c1.1,2.5,2.77,4.24,4.91,4.84,5.86,1.65,13.11-5.84,16.13-16.72C121,235.31,120.5,228.06,118,223.83Z"/>
    </g>
    <g>
      <ellipse class="cls-17" cx="128.15" cy="257.04" rx="7.89" ry="5.15" transform="translate(-158.14 280.02) rotate(-68.09)"/>
      <path class="cls-18" d="M133,251.41a9.58,9.58,0,0,1-.3,7c-1.63,4-5.09,6.46-7.73,5.4a3.8,3.8,0,0,1-1.87-1.71,4,4,0,0,0,2.14,2.25c2.64,1.06,6.09-1.34,7.71-5.4C134.05,256.12,134,253.27,133,251.41Z"/>
    </g>
    <g>
      <ellipse class="cls-17" cx="97.45" cy="270.14" rx="2.59" ry="2.8"/>
      <path class="cls-18" d="M98.65,267.66A2.87,2.87,0,0,1,99.83,270a2.7,2.7,0,0,1-2.59,2.8,2.34,2.34,0,0,1-1.18-.31,2.41,2.41,0,0,0,1.42.46,2.71,2.71,0,0,0,2.59-2.81A2.86,2.86,0,0,0,98.65,267.66Z"/>
    </g>
    <ellipse class="cls-24" cx="118" cy="299.53" rx="22.94" ry="13.87" transform="translate(-196.94 366.25) rotate(-80.46)"/>
    <g>
      <ellipse class="cls-17" cx="116.57" cy="300.75" rx="19.96" ry="11.5" transform="translate(-199.34 365.86) rotate(-80.46)"/>
      <path class="cls-18" d="M124.75,284.16c2.5,4,3.52,10.45,2.35,17.34-1.83,10.88-8.4,18.82-14.66,17.78a7.84,7.84,0,0,1-4.84-3.08,8.44,8.44,0,0,0,5.67,4.25c6.27,1.06,12.82-6.9,14.65-17.76C129.21,295.07,127.83,288.05,124.75,284.16Z"/>
    </g>
    <g>
      <ellipse class="cls-17" cx="162.38" cy="276.79" rx="8.4" ry="9.58" transform="translate(-110.79 108.39) rotate(-27.95)"/>
      <path class="cls-18" d="M161.81,267.46a10,10,0,0,1,7.12,5.29c2.48,4.68,1.16,10.23-2.93,12.4a7.44,7.44,0,0,1-3.92.86,7.51,7.51,0,0,0,4.79-.77c4.1-2.17,5.41-7.71,2.93-12.4A9.84,9.84,0,0,0,161.81,267.46Z"/>
    </g>
    <ellipse class="cls-25" cx="276.89" cy="286.12" rx="24.7" ry="13.77" transform="translate(-83.19 456.03) rotate(-71.2)"/>
    <ellipse class="cls-17" cx="276.89" cy="286.12" rx="22.02" ry="11.05" transform="translate(-83.19 456.03) rotate(-71.2)"/>
    <ellipse class="cls-26" cx="230" cy="322.62" rx="14.19" ry="15.24" transform="translate(-68.09 61.62) rotate(-13.31)"/>
    <g>
      <ellipse class="cls-17" cx="231.63" cy="321.93" rx="10.81" ry="12.21"/>
      <path class="cls-18" d="M236.61,311.09a12.67,12.67,0,0,1,4.89,10.21c0,6.74-4.84,12.21-10.81,12.21a9.92,9.92,0,0,1-5-1.37,10,10,0,0,0,5.92,2c6,0,10.81-5.47,10.81-12.21A12.44,12.44,0,0,0,236.61,311.09Z"/>
    </g>
    <g>
      <ellipse class="cls-17" cx="189.14" cy="344.49" rx="4.2" ry="4.79"/>
      <path class="cls-18" d="M191.07,340.24a5,5,0,0,1,1.9,4c0,2.64-1.88,4.79-4.2,4.79a3.84,3.84,0,0,1-1.93-.54,3.82,3.82,0,0,0,2.3.78,4.52,4.52,0,0,0,4.2-4.79A4.9,4.9,0,0,0,191.07,340.24Z"/>
    </g>
    <g>
      <ellipse class="cls-17" cx="186.51" cy="311.6" rx="5.15" ry="5.53"/>
      <path class="cls-18" d="M188.88,306.69a5.62,5.62,0,0,1,2.34,4.63,5.35,5.35,0,0,1-5.16,5.53,4.79,4.79,0,0,1-2.37-.62,4.91,4.91,0,0,0,2.82.91,5.35,5.35,0,0,0,5.15-5.54A5.57,5.57,0,0,0,188.88,306.69Z"/>
    </g>
    <g>
      <ellipse class="cls-17" cx="192.17" cy="365.18" rx="9.62" ry="8.44" transform="translate(-219.76 340.68) rotate(-58.84)"/>
      <path class="cls-18" d="M198.35,360.23a10,10,0,0,1-.89,8.82c-2.74,4.53-8.18,6.24-12.15,3.84a7.5,7.5,0,0,1-2.75-2.92,7.6,7.6,0,0,0,3.13,3.72c4,2.4,9.4.67,12.14-3.84A9.81,9.81,0,0,0,198.35,360.23Z"/>
    </g>
    <g>
      <ellipse class="cls-17" cx="158.41" cy="320.5" rx="3.82" ry="4.31" transform="translate(-147.04 134.72) rotate(-32.39)"/>
      <path class="cls-18" d="M157.85,316.38a4.44,4.44,0,0,1,3.38,2.12,4.07,4.07,0,0,1-.91,5.68,3.48,3.48,0,0,1-1.75.53,3.46,3.46,0,0,0,2.15-.53,4.06,4.06,0,0,0,.91-5.67A4.41,4.41,0,0,0,157.85,316.38Z"/>
    </g>
    <g>
      <ellipse class="cls-17" cx="231.64" cy="356.19" rx="4.68" ry="5.28" transform="translate(-180.78 254.02) rotate(-43.05)"/>
      <path class="cls-18" d="M230,351.29a5.48,5.48,0,0,1,4.57,1.78,5,5,0,0,1,.18,7.05,4.32,4.32,0,0,1-2,1,4.29,4.29,0,0,0,2.46-1.12c1.89-1.77,1.81-4.93-.18-7.06A5.4,5.4,0,0,0,230,351.29Z"/>
    </g>
    <g>
      <ellipse class="cls-17" cx="142.5" cy="352.53" rx="5.15" ry="5.59"/>
      <path class="cls-18" d="M144.87,347.56a5.74,5.74,0,0,1,2.34,4.68,5.38,5.38,0,0,1-5.15,5.59,4.83,4.83,0,0,1-2.38-.62,4.84,4.84,0,0,0,2.82.91,5.38,5.38,0,0,0,5.15-5.6A5.67,5.67,0,0,0,144.87,347.56Z"/>
    </g>
    <g>
      <ellipse class="cls-17" cx="128.43" cy="346.2" rx="3.29" ry="4.32"/>
      <path class="cls-18" d="M130,342.36a4.8,4.8,0,0,1,1.49,3.62c0,2.39-1.49,4.32-3.3,4.32a2.57,2.57,0,0,1-1.51-.49,2.75,2.75,0,0,0,1.8.71c1.82,0,3.3-1.93,3.3-4.32A4.63,4.63,0,0,0,130,342.36Z"/>
    </g>
    <g>
      <ellipse class="cls-17" cx="184.24" cy="324.19" rx="2.1" ry="2.26"/>
      <path class="cls-18" d="M185.21,322.18a2.28,2.28,0,0,1,.95,1.89,2.19,2.19,0,0,1-2.1,2.26,2,2,0,0,1-1-.25,1.86,1.86,0,0,0,1.14.36,2.18,2.18,0,0,0,2.11-2.26A2.29,2.29,0,0,0,185.21,322.18Z"/>
    </g>
    <g>
      <ellipse class="cls-17" cx="256.94" cy="332.73" rx="2.59" ry="2.8"/>
      <path class="cls-18" d="M258.13,330.24a2.9,2.9,0,0,1,1.19,2.36,2.71,2.71,0,0,1-2.59,2.8,2.48,2.48,0,0,1-1.19-.31,2.49,2.49,0,0,0,1.42.45,2.7,2.7,0,0,0,2.59-2.8A2.84,2.84,0,0,0,258.13,330.24Z"/>
    </g>
    <g>
      <ellipse class="cls-17" cx="158.33" cy="344.49" rx="2.59" ry="2.8"/>
      <path class="cls-18" d="M159.53,342a2.85,2.85,0,0,1,1.17,2.35,2.7,2.7,0,0,1-2.59,2.8,2.45,2.45,0,0,1-1.19-.3,2.41,2.41,0,0,0,1.42.46,2.71,2.71,0,0,0,2.59-2.81A2.83,2.83,0,0,0,159.53,342Z"/>
    </g>
  </g>
</svg>
