<?xml version="1.0" encoding="utf-8"?>
<!-- Generator: Adobe Illustrator 24.0.1, SVG Export Plug-In . SVG Version: 6.00 Build 0)  -->
<svg version="1.1" id="Шар_1" xmlns="http://www.w3.org/2000/svg" xmlns:xlink="http://www.w3.org/1999/xlink" x="0px" y="0px"
	 viewBox="0 0 1928 1080" style="enable-background:new 0 0 1928 1080;" xml:space="preserve">
<style type="text/css">
	.st0{fill:#FFFFFF;}
	.st1{fill:url(#Vector_1_);}
	.st2{opacity:0.2;fill:url(#Vector_2_1_);enable-background:new    ;}
	.st3{opacity:0.2;fill:url(#Vector_3_1_);enable-background:new    ;}
	.st4{fill:url(#Vector_4_1_);}
	.st5{fill:url(#Vector_5_1_);}
	.st6{opacity:0.12;fill:url(#Vector_6_1_);enable-background:new    ;}
	.st7{opacity:0.49;fill:url(#Vector_7_1_);enable-background:new    ;}
	.st8{opacity:0.76;fill:url(#Vector_8_1_);enable-background:new    ;}
	.st9{opacity:0.76;fill:url(#Vector_8-2_1_);enable-background:new    ;}
	.st10{opacity:0.76;fill:url(#Vector_9_1_);enable-background:new    ;}
	.st11{fill:url(#Vector_10_1_);}
	.st12{opacity:0.3;fill:url(#Vector_11_1_);enable-background:new    ;}
	.st13{opacity:0.62;fill:url(#Vector_14_1_);enable-background:new    ;}
	.st14{opacity:0.62;fill:url(#Vector_15_1_);enable-background:new    ;}
	.st15{opacity:0.62;fill:url(#Vector_16_1_);enable-background:new    ;}
	.st16{opacity:0.62;fill:url(#Vector_17_1_);enable-background:new    ;}
	.st17{opacity:0.62;fill:url(#Vector_18_1_);enable-background:new    ;}
	.st18{opacity:0.62;fill:url(#Vector_19_1_);enable-background:new    ;}
	.st19{opacity:0.62;fill:url(#Vector_20_1_);enable-background:new    ;}
	.st20{opacity:0.62;fill:url(#Vector_21_1_);enable-background:new    ;}
	.st21{opacity:0.62;fill:url(#Vector_22_1_);enable-background:new    ;}
	.st22{opacity:0.62;fill:url(#Vector_23_1_);enable-background:new    ;}
	.st23{opacity:0.62;fill:url(#Vector_24_1_);enable-background:new    ;}
	.st24{opacity:0.62;fill:url(#Vector_25_1_);enable-background:new    ;}
	.st25{opacity:0.62;fill:url(#Vector_26_1_);enable-background:new    ;}
	.st26{opacity:0.42;fill:url(#Vector_76_1_);enable-background:new    ;}
	.st27{fill:url(#Vector_77_1_);}
	.st28{fill:#8C0000;}
	.st29{fill:#A00000;}
	.st30{opacity:0.73;fill:url(#Vector_84_1_);enable-background:new    ;}
	.st31{opacity:0.2;fill:url(#Vector_85_1_);enable-background:new    ;}
	.st32{opacity:0.2;fill:url(#Vector_86_1_);enable-background:new    ;}
	.st33{fill:url(#SVGID_1_);}
	.st34{fill:url(#SVGID_2_);}
	.st35{opacity:0.5;fill:url(#SVGID_3_);enable-background:new    ;}
	.st36{opacity:8.000000e-02;}
	.st37{fill:url(#SVGID_4_);}
	.st38{opacity:0.5;fill:url(#SVGID_5_);enable-background:new    ;}
	.st39{opacity:0.25;fill:#FFFFFF;enable-background:new    ;}
	.st40{opacity:0.5;}
	.st41{opacity:0.5;fill:url(#SVGID_6_);enable-background:new    ;}
	.st42{opacity:0.5;fill:url(#SVGID_7_);enable-background:new    ;}
	.st43{opacity:0.5;fill:url(#SVGID_8_);enable-background:new    ;}
	.st44{opacity:0.5;fill:url(#SVGID_9_);enable-background:new    ;}
</style>
<title>1</title>
<rect class="st0" width="1920" height="1080"/>
<linearGradient id="Vector_1_" gradientUnits="userSpaceOnUse" x1="0.4986" y1="-14.6408" x2="1911.5015" y2="1094.6409" gradientTransform="matrix(1 0 0 1 8 0)">
	<stop  offset="0" style="stop-color:#002850"/>
	<stop  offset="0.5" style="stop-color:#32003C"/>
	<stop  offset="1" style="stop-color:#1C1245"/>
</linearGradient>
<path id="Vector" class="st1" d="M1928,0H0v1080h1928V0z"/>
<g id="Group">
	
		<linearGradient id="Vector_2_1_" gradientUnits="userSpaceOnUse" x1="361.673" y1="243.5754" x2="377.633" y2="251.2354" gradientTransform="matrix(1 0 0 1 8 0)">
		<stop  offset="0" style="stop-color:#320064"/>
		<stop  offset="1" style="stop-color:#320064"/>
	</linearGradient>
	<path id="Vector_2" class="st2" d="M379.5,256.8c4.9-0.4,8.5-4.7,8.1-9.5c-0.4-4.9-4.7-8.5-9.5-8.1c-4.8,0.4-8.4,4.6-8.1,9.4
		C370.4,253.5,374.6,257.1,379.5,256.8C379.5,256.8,379.5,256.8,379.5,256.8z"/>
	
		<linearGradient id="Vector_3_1_" gradientUnits="userSpaceOnUse" x1="-1101.5216" y1="-451.5168" x2="-489.8716" y2="-156.9168" gradientTransform="matrix(1 0 0 1 8 0)">
		<stop  offset="0" style="stop-color:#320064"/>
		<stop  offset="1" style="stop-color:#320064"/>
	</linearGradient>
	<path id="Vector_3" class="st3" d="M398.1,279.4c7.2-0.6,12.5-6.8,11.9-14s-6.8-12.5-14-11.9c-7.1,0.6-12.5,6.8-11.9,13.9
		C384.6,274.5,390.8,279.9,398.1,279.4C398,279.4,398.1,279.4,398.1,279.4z"/>
</g>
<linearGradient id="Vector_4_1_" gradientUnits="userSpaceOnUse" x1="955.7079" y1="885.7578" x2="1243.3502" y2="597.5755" gradientTransform="matrix(1 0 0 1 8 0)">
	<stop  offset="0" style="stop-color:#FF6200"/>
	<stop  offset="0.5" style="stop-color:#C40F00"/>
	<stop  offset="1" style="stop-color:#200E43;stop-opacity:0.7"/>
</linearGradient>
<path id="Vector_4" class="st4" d="M1007.4,859.2l1.8-1.8c1.2-1.2,2.3-2.4,3.4-3.7l249.3-260l-12.1-11.8L996.2,836
	c-1.5,1.4-3,2.9-4.5,4.4c-0.7,0.7-1.3,1.4-2,2.1l-1.9,1.9l0.1,0.1c-13.7,15.2-21.1,30.1-16.6,34.4s19.2-3.4,34-17.6l0.1,0.1
	L1007.4,859.2z"/>
<linearGradient id="Vector_5_1_" gradientUnits="userSpaceOnUse" x1="651.2652" y1="141.6153" x2="778.6879" y2="13.2923" gradientTransform="matrix(1 0 0 1 8 0)">
	<stop  offset="0" style="stop-color:#FF6200"/>
	<stop  offset="0.5" style="stop-color:#C40F00"/>
	<stop  offset="1" style="stop-color:#200E43;stop-opacity:0.7"/>
</linearGradient>
<path id="Vector_5" class="st5" d="M678.7,129.8l0.8-0.8c0.5-0.5,1-1.1,1.5-1.6L792,12.2L786.6,7l-113,112.5c-0.7,0.6-1.3,1.3-2,2
	c-0.3,0.3-0.6,0.6-0.9,0.9l-0.8,0.8l0,0c-6.1,6.7-9.4,13.3-7.4,15.2s8.5-1.5,15.1-7.8l0,0L678.7,129.8z"/>
<linearGradient id="Vector_6_1_" gradientUnits="userSpaceOnUse" x1="342.9315" y1="1078.6617" x2="564.1815" y2="896.6618" gradientTransform="matrix(1 0 0 1 8 0)">
	<stop  offset="0" style="stop-color:#EC7200"/>
	<stop  offset="0.5" style="stop-color:#DF3700"/>
	<stop  offset="1" style="stop-color:#200E43;stop-opacity:0.7"/>
</linearGradient>
<path id="Vector_6" class="st6" d="M389,1062.6l1.4-1.1c0.9-0.8,1.8-1.6,2.6-2.3l192.1-164.8L574.6,882l-196,158.7
	c-1.2,0.9-2.3,1.8-3.5,2.8l-1.5,1.3l-1.4,1.2l0.1,0.1c-10.5,9.8-15.9,20.7-12,25.3s15.6,1.2,27.1-7.4l0.1,0.1L389,1062.6z"/>
<linearGradient id="Vector_7_1_" gradientUnits="userSpaceOnUse" x1="277.5619" y1="188.7321" x2="390.5619" y2="91.3521" gradientTransform="matrix(1 0 0 1 8 0)">
	<stop  offset="0" style="stop-color:#C10000"/>
	<stop  offset="0.5" style="stop-color:#603700"/>
	<stop  offset="1" style="stop-color:#200E43;stop-opacity:0.7"/>
</linearGradient>
<path id="Vector_7" class="st7" d="M299,182l0.7-0.6l1.4-1.2l100.9-85.9l-3.6-4.3l-102.2,83.7c-0.6,0.5-1.2,1-1.8,1.5l-0.8,0.7
	l-0.8,0.6c-5.6,5-9,10.1-7.6,11.6s6.9-0.9,12.8-5.5L299,182z"/>
<linearGradient id="Vector_8_1_" gradientUnits="userSpaceOnUse" x1="970.9316" y1="289.1917" x2="1242.1216" y2="30.8416" gradientTransform="matrix(1 0 0 1 8 0)">
	<stop  offset="0" style="stop-color:#29FF7C"/>
	<stop  offset="0.5" style="stop-color:#0646FF"/>
	<stop  offset="1" style="stop-color:#200E43;stop-opacity:0"/>
</linearGradient>
<path id="Vector_8" class="st8" d="M1005.6,272.1c0.6-0.5,1.2-1,1.8-1.6c1.2-1,2.3-2.1,3.4-3.1L1257,44.8l-10.5-9.8L996.6,252.6
	c-1.5,1.2-3,2.5-4.4,3.8c-0.7,0.6-1.3,1.2-1.9,1.8l-1.8,1.6l0.1,0.1c-13.6,13-21.3,25.7-17.5,29.3s17.9-3.1,32.5-15.2l0.1,0.1
	L1005.6,272.1z"/>
<linearGradient id="Vector_8-2_1_" gradientUnits="userSpaceOnUse" x1="59.7137" y1="787.4434" x2="240.8037" y2="614.9335" gradientTransform="matrix(1 0 0 1 8 0)">
	<stop  offset="0" style="stop-color:#29FF7C"/>
	<stop  offset="0.5" style="stop-color:#0646FF"/>
	<stop  offset="1" style="stop-color:#200E43;stop-opacity:0"/>
</linearGradient>
<path id="Vector_8-2" class="st9" d="M85.5,776c0.4-0.3,0.8-0.7,1.2-1c0.8-0.7,1.5-1.4,2.3-2.1l164.4-148.7l-7-6.5L79.5,763
	c-1,0.8-2,1.7-3,2.5c-0.4,0.4-0.9,0.8-1.3,1.2l-1.2,1.1l0,0c-9.1,8.7-14.2,17.1-11.7,19.5c2.6,2.4,12-2.1,21.7-10.1h0.1L85.5,776z"
	/>
<linearGradient id="Vector_9_1_" gradientUnits="userSpaceOnUse" x1="660.8031" y1="1035.0426" x2="952.7131" y2="752.5925" gradientTransform="matrix(1 0 0 1 8 0)">
	<stop  offset="0" style="stop-color:#29FF7C"/>
	<stop  offset="0.5" style="stop-color:#0646FF"/>
	<stop  offset="1" style="stop-color:#200E43;stop-opacity:0"/>
</linearGradient>
<path id="Vector_9" class="st10" d="M697.6,1016.4c0.6-0.6,1.3-1.1,1.9-1.7c1.3-1.1,2.5-2.3,3.7-3.4l265-243.6l-11.4-10.5
	l-269,238.1c-1.6,1.3-3.2,2.7-4.8,4.2c-0.7,0.6-1.4,1.3-2.1,1.9l-2,1.8l0.1,0.1c-14.7,14.2-22.9,28-18.7,31.9s19.4-3.5,35.1-16.8
	l0.1,0.1L697.6,1016.4z"/>
<g id="dark_comet">
	
		<linearGradient id="Vector_10_1_" gradientUnits="userSpaceOnUse" x1="36.6257" y1="1074.2753" x2="235.8057" y2="896.2752" gradientTransform="matrix(1 0 0 1 8 0)">
		<stop  offset="0" style="stop-color:#320064"/>
		<stop  offset="1" style="stop-color:#320064;stop-opacity:0"/>
	</linearGradient>
	<path id="Vector_10" class="st11" d="M109.3,1037.3l1.3-1.1c0.8-0.7,1.7-1.5,2.4-2.2l178.4-156.8L275.4,861L90.7,1010.2
		c-1.1,0.8-2.2,1.7-3.3,2.6c-0.5,0.4-1,0.8-1.4,1.2l-1.4,1.1l0.1,0.1c-9.6,9.5-12.6,21.1-6.7,27.1s18.8,4.1,29.8-3.9l0.1,0.1
		L109.3,1037.3z"/>
	
		<linearGradient id="Vector_11_1_" gradientUnits="userSpaceOnUse" x1="22614.5684" y1="-20298.1816" x2="45892.5703" y2="-42339.1836" gradientTransform="matrix(1 0 0 1 8 0)">
		<stop  offset="0" style="stop-color:#29FF7C"/>
		<stop  offset="0.5" style="stop-color:#0646FF"/>
		<stop  offset="1" style="stop-color:#200E43;stop-opacity:0"/>
	</linearGradient>
	<path id="Vector_11" class="st12" d="M114.5,1023.7c0.4-0.3,0.7-0.6,1-0.9c0.7-0.6,1.3-1.2,2-1.8l143.2-127l-10.1-10l-147.1,122.2
		c-0.9,0.7-1.8,1.4-2.6,2.1l-1.1,1l-1.1,0.9l0.1,0.1c-7.8,7.6-11,16.1-7.3,19.8s13.2,1.2,21.9-5.4l0.1,0.1L114.5,1023.7z"/>
</g>
<radialGradient id="Vector_14_1_" cx="3.9424" cy="4.593939e-02" r="1" gradientTransform="matrix(125.1 112.76 -112.7 125.03 12795.4248 11431.5771)" gradientUnits="userSpaceOnUse">
	<stop  offset="0" style="stop-color:#FFFFFF"/>
	<stop  offset="1" style="stop-color:#FFFFFF;stop-opacity:0"/>
</radialGradient>
<path id="Vector_14" class="st13" d="M814.2,900.4c5,0,9.1-4.1,9.1-9.2c0-5-4.1-9.1-9.2-9.1c-5,0-9.1,4.1-9.1,9.1
	C805,896.3,809.1,900.4,814.2,900.4C814.2,900.4,814.2,900.4,814.2,900.4z"/>
<radialGradient id="Vector_15_1_" cx="3.9984" cy="1.386509e-03" r="1" gradientTransform="matrix(1431.4 1257.3 -1256.4399 1430.4301 174175.2813 134991.8438)" gradientUnits="userSpaceOnUse">
	<stop  offset="0" style="stop-color:#FFFFFF"/>
	<stop  offset="1" style="stop-color:#FFFFFF;stop-opacity:0"/>
</radialGradient>
<path id="Vector_15" class="st14" d="M1017.1,1035.4c12-11.9,12.1-31.3,0.2-43.3c-0.1-0.1-0.1-0.1-0.2-0.2c-12.1-12-31.6-12-43.7,0
	c-12,11.9-12.1,31.3-0.2,43.3c0.1,0.1,0.1,0.1,0.2,0.2C985.5,1047.4,1005.1,1047.4,1017.1,1035.4z"/>
<radialGradient id="Vector_16_1_" cx="3.9424" cy="4.593939e-02" r="1" gradientTransform="matrix(125.1 112.76 -112.7 125.03 17161.1992 11919.1865)" gradientUnits="userSpaceOnUse">
	<stop  offset="0" style="stop-color:#FFFFFF"/>
	<stop  offset="1" style="stop-color:#FFFFFF;stop-opacity:0"/>
</radialGradient>
<path id="Vector_16" class="st15" d="M1047.7,921.2c5,0,9.1-4.1,9.1-9.2c0-5-4.1-9.1-9.2-9.1c-5,0-9.1,4.1-9.1,9.1
	C1038.6,917.1,1042.7,921.2,1047.7,921.2C1047.7,921.2,1047.7,921.2,1047.7,921.2z"/>
<radialGradient id="Vector_17_1_" cx="3.9424" cy="4.593939e-02" r="1" gradientTransform="matrix(125.1 112.76 -112.7 125.03 5179.9482 13183.1553)" gradientUnits="userSpaceOnUse">
	<stop  offset="0" style="stop-color:#FFFFFF"/>
	<stop  offset="1" style="stop-color:#FFFFFF;stop-opacity:0"/>
</radialGradient>
<path id="Vector_17" class="st16" d="M406.3,1008.3c5,0,9.1-4.1,9.1-9.2c0-5-4.1-9.1-9.2-9.1c-5,0-9.1,4.1-9.1,9.1
	C397.1,1004.2,401.3,1008.3,406.3,1008.3z"/>
<radialGradient id="Vector_18_1_" cx="3.9841" cy="1.525294e-02" r="1" gradientTransform="matrix(379.01 336.59 -336.38 378.78 25211.7715 21314.3984)" gradientUnits="userSpaceOnUse">
	<stop  offset="0" style="stop-color:#FFFFFF"/>
	<stop  offset="1" style="stop-color:#FFFFFF;stop-opacity:0"/>
</radialGradient>
<path id="Vector_18" class="st17" d="M613.8,664c8.7,0,15.8-7.2,15.7-15.9s-7.2-15.8-15.9-15.7c-8.7,0-15.8,7.1-15.8,15.8
	C597.9,656.9,605,664,613.8,664C613.7,664,613.7,664,613.8,664z"/>
<radialGradient id="Vector_19_1_" cx="3.9424" cy="4.593939e-02" r="1" gradientTransform="matrix(125.1 112.76 -112.7 125.03 21701.918 10532.2334)" gradientUnits="userSpaceOnUse">
	<stop  offset="0" style="stop-color:#FFFFFF"/>
	<stop  offset="1" style="stop-color:#FFFFFF;stop-opacity:0"/>
</radialGradient>
<path id="Vector_19" class="st18" d="M1291,837.9c5,0,9.1-4.1,9.1-9.2c0-5-4.1-9.1-9.2-9.1c-5,0-9.1,4.1-9.1,9.1
	C1281.8,833.8,1285.9,837.9,1291,837.9C1291,837.9,1291,837.9,1291,837.9z"/>
<radialGradient id="Vector_20_1_" cx="3.9848" cy="-1.900632e-03" r="1" gradientTransform="matrix(683.59 -250.92 249.89 680.78 74998.0938 -29163.6895)" gradientUnits="userSpaceOnUse">
	<stop  offset="0" style="stop-color:#FFFFFF"/>
	<stop  offset="1" style="stop-color:#FFFFFF;stop-opacity:0"/>
</radialGradient>
<path id="Vector_20" class="st19" d="M908.4,931.1c10.5-0.1,18.9-8.6,18.9-19.1c-0.1-10.5-8.6-18.9-19.1-18.9
	c-10.4,0.1-18.9,8.6-18.9,19C889.3,922.6,897.9,931.1,908.4,931.1z"/>
<radialGradient id="Vector_21_1_" cx="3.9424" cy="4.593939e-02" r="1" gradientTransform="matrix(125.1 112.76 -112.7 125.03 5576.1045 11621.9053)" gradientUnits="userSpaceOnUse">
	<stop  offset="0" style="stop-color:#FFFFFF"/>
	<stop  offset="1" style="stop-color:#FFFFFF;stop-opacity:0"/>
</radialGradient>
<path id="Vector_21" class="st20" d="M428,921.2c5,0,9.1-4.1,9.1-9.2c0-5-4.1-9.1-9.2-9.1c-5,0-9.1,4.1-9.1,9.1
	C418.8,917.1,422.9,921.2,428,921.2C428,921.2,428,921.2,428,921.2z"/>
<radialGradient id="Vector_22_1_" cx="3.9875" cy="2.228989e-03" r="1" gradientTransform="matrix(890.46 782.69 -782.16 889.85 161620.1875 81561.3906)" gradientUnits="userSpaceOnUse">
	<stop  offset="0" style="stop-color:#FFFFFF"/>
	<stop  offset="1" style="stop-color:#FFFFFF;stop-opacity:0"/>
</radialGradient>
<path id="Vector_22" class="st21" d="M1388,891.3c13.4-0.1,24.1-11,24.1-24.4c-0.1-13.4-11-24.1-24.4-24.1
	c-13.3,0.1-24,10.9-24.1,24.2C1363.7,880.4,1374.5,891.3,1388,891.3C1388,891.3,1388,891.3,1388,891.3z"/>
<radialGradient id="Vector_23_1_" cx="3.9424" cy="4.593939e-02" r="1" gradientTransform="matrix(125.1 112.76 -112.7 125.03 6689.2764 8286.749)" gradientUnits="userSpaceOnUse">
	<stop  offset="0" style="stop-color:#FFFFFF"/>
	<stop  offset="1" style="stop-color:#FFFFFF;stop-opacity:0"/>
</radialGradient>
<path id="Vector_23" class="st22" d="M488.5,734.9c5,0,9.1-4.1,9.1-9.2c0-5-4.1-9.1-9.2-9.1c-5,0-9.1,4.1-9.1,9.1
	C479.4,730.8,483.5,734.9,488.5,734.9z"/>
<radialGradient id="Vector_24_1_" cx="3.9424" cy="4.593939e-02" r="1" gradientTransform="matrix(125.1 112.76 -112.7 125.03 9507.3701 9756.5459)" gradientUnits="userSpaceOnUse">
	<stop  offset="0" style="stop-color:#FFFFFF"/>
	<stop  offset="1" style="stop-color:#FFFFFF;stop-opacity:0"/>
</radialGradient>
<path id="Vector_24" class="st23" d="M638.8,812.3c5,0,9.1-4.1,9.1-9.2c0-5-4.1-9.1-9.2-9.1c-5,0-9.1,4.1-9.1,9.1
	C629.7,808.2,633.8,812.3,638.8,812.3z"/>
<radialGradient id="Vector_25_1_" cx="3.9424" cy="4.593939e-02" r="1" gradientTransform="matrix(125.1 112.76 -112.7 125.03 2478.2842 10603.8115)" gradientUnits="userSpaceOnUse">
	<stop  offset="0" style="stop-color:#FFFFFF"/>
	<stop  offset="1" style="stop-color:#FFFFFF;stop-opacity:0"/>
</radialGradient>
<path id="Vector_25" class="st24" d="M262.6,869.2c5,0,9.1-4.1,9.1-9.2c0-5-4.1-9.1-9.2-9.1c-5,0-9.1,4.1-9.1,9.1
	C253.4,865.1,257.5,869.2,262.6,869.2C262.6,869.2,262.6,869.2,262.6,869.2z"/>
<radialGradient id="Vector_26_1_" cx="3.9424" cy="4.593939e-02" r="1" gradientTransform="matrix(125.1 112.76 -112.7 125.03 26268.7383 12874.5146)" gradientUnits="userSpaceOnUse">
	<stop  offset="0" style="stop-color:#FFFFFF"/>
	<stop  offset="1" style="stop-color:#FFFFFF;stop-opacity:0"/>
</radialGradient>
<path id="Vector_26" class="st25" d="M1534.7,961.1c5,0,9.1-4.1,9.1-9.2c0-5-4.1-9.1-9.2-9.1c-5,0-9.1,4.1-9.1,9.1
	C1525.5,957,1529.6,961.1,1534.7,961.1C1534.7,961.1,1534.7,961.1,1534.7,961.1z"/>
<g id="bottom_right_yellow_planet">
	
		<linearGradient id="Vector_76_1_" gradientUnits="userSpaceOnUse" x1="1577.225" y1="832.676" x2="1821.2578" y2="974.3235" gradientTransform="matrix(1 0 0 1 8 0)">
		<stop  offset="0" style="stop-color:#FFFFFF"/>
		<stop  offset="0.5" style="stop-color:#FFFFFF;stop-opacity:0.8"/>
		<stop  offset="1" style="stop-color:#FFFFFF;stop-opacity:0"/>
	</linearGradient>
	<path id="Vector_76" class="st26" d="M1707.2,1044c78,0,141.2-62.9,141.2-140.5S1785.2,763,1707.2,763S1566,825.9,1566,903.5
		S1629.2,1044,1707.2,1044z"/>
	
		<linearGradient id="Vector_77_1_" gradientUnits="userSpaceOnUse" x1="1576.749" y1="891.5371" x2="1815.4017" y2="923.0474" gradientTransform="matrix(1 0 0 1 8 0)">
		<stop  offset="0" style="stop-color:#FFD70F"/>
		<stop  offset="1" style="stop-color:#DC0C16"/>
	</linearGradient>
	<path id="Vector_77" class="st27" d="M1707.2,1027.4c66.5,0,120.4-53.6,120.4-119.7S1773.7,788,1707.2,788s-120.4,53.6-120.4,119.7
		S1640.8,1027.4,1707.2,1027.4z"/>
	<g id="Group_23">
		<path id="Vector_78" class="st28" d="M1773.2,841.6c4.8-5,3.5-13.9-2.9-20s-15.4-7-20.2-2s-3.5,13.9,2.9,20
			S1768.4,846.6,1773.2,841.6z"/>
		<path id="Vector_79" class="st29" d="M1755.3,816.5c5.1-0.4,10.1,1.5,13.7,5.1c6.4,6.1,7.7,15,2.9,20c-1.4,1.5-3.3,2.5-5.3,2.9
			c2.5-0.2,4.9-1.3,6.6-3.1c4.8-5,3.4-13.9-2.9-20C1766.4,817.4,1760.8,815.6,1755.3,816.5L1755.3,816.5z"/>
	</g>
	<g id="Group_24">
		<path id="Vector_80" class="st28" d="M1808.9,904c0.5-20.8-8.8-37.8-20.8-38.1s-22,16.3-22.5,37.1s8.8,37.8,20.8,38.1
			S1808.4,924.8,1808.9,904z"/>
		<path id="Vector_81" class="st29" d="M1798,870.3c5.8,6.8,9.4,18.5,9.1,31.7c-0.5,20.8-10.6,37.3-22.6,37.1
			c-3.7-0.2-7.3-1.7-9.9-4.4c2.8,3.7,7.1,6.1,11.7,6.4c12,0.3,22.1-16.3,22.6-37.1C1809.3,889.5,1804.8,876.8,1798,870.3z"/>
	</g>
	<g id="Group_25">
		<path id="Vector_82" class="st28" d="M1759.7,987.2c8-11,7.8-24.8-0.4-30.7s-21.5-1.9-29.5,9.2s-7.8,24.8,0.5,30.8
			S1751.7,998.3,1759.7,987.2z"/>
		<path id="Vector_83" class="st29" d="M1764.6,963.7c1.5,6.5-0.3,14.6-5.4,21.6c-8,11-21.2,15.1-29.5,9.2c-2.5-1.8-4.3-4.3-5.3-7.2
			c0.7,3.7,2.8,6.9,5.8,9.2c8.3,6,21.5,1.8,29.5-9.2C1765.3,979.6,1766.9,970.5,1764.6,963.7z"/>
	</g>
</g>
<g id="small_yellow_planet">
	
		<linearGradient id="Vector_84_1_" gradientUnits="userSpaceOnUse" x1="961.7684" y1="937.1816" x2="1085.6924" y2="1009.124" gradientTransform="matrix(1 0 0 1 8 0)">
		<stop  offset="0" style="stop-color:#FFD70F"/>
		<stop  offset="1" style="stop-color:#DC0046"/>
	</linearGradient>
	<path id="Vector_84" class="st30" d="M1031.7,1044.5c39.6,0,71.7-31.9,71.7-71.3s-32.1-71.3-71.7-71.3S960,933.8,960,973.2
		S992.1,1044.5,1031.7,1044.5z"/>
	<g id="Group_26">
		
			<linearGradient id="Vector_85_1_" gradientUnits="userSpaceOnUse" x1="10673.1572" y1="3839.7451" x2="11184.2578" y2="3993.9851" gradientTransform="matrix(1 0 0 1 8 0)">
			<stop  offset="0" style="stop-color:#320064"/>
			<stop  offset="1" style="stop-color:#320064"/>
		</linearGradient>
		<path id="Vector_85" class="st31" d="M1032.1,939.6c7-1.8,11.3-8.9,9.5-16c-1.8-7-8.9-11.3-16-9.5c-6.9,1.8-11.2,8.8-9.5,15.8
			C1017.8,937,1025,941.3,1032.1,939.6C1032.1,939.6,1032.1,939.6,1032.1,939.6z"/>
		
			<linearGradient id="Vector_86_1_" gradientUnits="userSpaceOnUse" x1="16246.459" y1="5543.9722" x2="17346.7578" y2="5876.6719" gradientTransform="matrix(1 0 0 1 8 0)">
			<stop  offset="0" style="stop-color:#320064"/>
			<stop  offset="1" style="stop-color:#320064"/>
		</linearGradient>
		<path id="Vector_86" class="st32" d="M1065,968.3c10.3-2.7,16.5-13.1,13.9-23.5s-13.2-16.5-23.5-13.9
			c-10.2,2.6-16.4,12.9-13.9,23.1c2.5,10.4,13,16.7,23.4,14.2C1064.9,968.3,1064.9,968.3,1065,968.3z"/>
	</g>
</g>
<g>
	
		<linearGradient id="SVGID_1_" gradientUnits="userSpaceOnUse" x1="275.5906" y1="727.6297" x2="921.1895" y2="354.8904" gradientTransform="matrix(1 0 0 -1 6.67 1085.1801)">
		<stop  offset="0" style="stop-color:#FFD70F"/>
		<stop  offset="1" style="stop-color:#DC0046"/>
	</linearGradient>
	<ellipse class="st33" cx="605.1" cy="543.9" rx="368" ry="386.4"/>
	
		<radialGradient id="SVGID_2_" cx="2425.6936" cy="-1208.3058" r="190.48" gradientTransform="matrix(0.2471 0.7714 1.2571 -0.4026 1455.8207 -2042.7328)" gradientUnits="userSpaceOnUse">
		<stop  offset="0" style="stop-color:#FFFFFF"/>
		<stop  offset="1" style="stop-color:#FFFFFF;stop-opacity:0"/>
	</radialGradient>
	<path class="st34" d="M485.9,176.4c132.5-42.4,261-10.8,287.1,70.6c26.1,81.4-60.2,181.8-192.7,224.2s-261,10.8-287.1-70.6
		C267.2,319.2,353.4,218.8,485.9,176.4z"/>
	
		<linearGradient id="SVGID_3_" gradientUnits="userSpaceOnUse" x1="407.2415" y1="644.8717" x2="917.2923" y2="350.3828" gradientTransform="matrix(1 0 0 -1 6.67 1087.84)">
		<stop  offset="0" style="stop-color:#FF0000"/>
		<stop  offset="1" style="stop-color:#DC0046"/>
	</linearGradient>
	<path class="st35" d="M973.1,543.9c-0.2,30.2-1.9,123.3-62.2,214.9c-67.4,102.6-187.1,171.4-305.8,171.4c-69,0-125.9-23.1-136-27.3
		c0,0-53.5-22.3-98.5-61.4c-15.3-13.3-29.2-28.3-29.2-28.3c-9.1-9.8-17.6-20.1-25.6-30.7c-4.4-5.8-11.5-15.7-19.5-28.6
		c-11.2-18.1-20.9-37.2-29.1-56.9c40.6,41.9,86.8,77.9,119.8,65.1c65.6-25.4,16.6-219,83-249c75.4-34.1,201.3,187.5,290.5,153.2
		c69.3-26.7,83-188.2,88-248c7.4-88.4-11.7-142.4,4.9-148.2c21.2-7.5,74.5,70.9,100.1,149.1C966.7,459.5,973.3,501.6,973.1,543.9z"
		/>
	<g class="st36">
		
			<linearGradient id="SVGID_4_" gradientUnits="userSpaceOnUse" x1="523.6243" y1="406.7115" x2="911.6443" y2="182.6815" gradientTransform="matrix(0.9968 7.967700e-02 7.967700e-02 -0.9968 -15.5884 863.9877)">
			<stop  offset="0" style="stop-color:#FFFFFF"/>
			<stop  offset="1" style="stop-color:#A0A0A0"/>
		</linearGradient>
		<path class="st37" d="M845.3,249.4c66.1,76.3,102.8,180.4,93.5,291.8c-17.8,212.6-196.4,371.3-399,354.4
			c-80-6.7-151.7-39.8-208.1-90.4c60.1,69.4,144.6,115.8,241,123.9c202.5,17,381.2-141.7,399-354.3C982.4,446,931.8,327,845.3,249.4
			z"/>
	</g>
	<g>
		
			<ellipse transform="matrix(0.9879 -0.1552 0.1552 0.9879 -53.2394 144.209)" class="st28" cx="896.8" cy="413" rx="25.7" ry="58.3"/>
		<path class="st29" d="M887.7,355.5c-1.3,0.2-2.6,0.7-3.8,1.3c12.8,2.3,25.9,24.7,30.4,53.5s-1,54.1-12.5,60.2
			c1.3,0.2,2.7,0.3,4,0.1c14-2.2,21.3-29.7,16.3-61.5S901.7,353.4,887.7,355.5z"/>
	</g>
	
		<linearGradient id="SVGID_5_" gradientUnits="userSpaceOnUse" x1="489.4545" y1="1374.4155" x2="615.9445" y2="1374.4155" gradientTransform="matrix(0.905 -0.2141 -0.1612 -0.6812 461.4473 1631.505)">
		<stop  offset="0" style="stop-color:#FFFFFF"/>
		<stop  offset="1" style="stop-color:#FFFFFF;stop-opacity:0.2"/>
	</linearGradient>
	<path class="st38" d="M717.3,499.8c31.5-7.4,65.2,21.5,75.5,64.7c10.2,43.2-7,84.2-38.5,91.6s-65.2-21.5-75.5-64.7
		C668.6,548.3,685.9,507.2,717.3,499.8z"/>
	<g>
		
			<ellipse transform="matrix(0.9899 -0.1419 0.1419 0.9899 -74.2703 110.2701)" class="st28" cx="735.8" cy="575.7" rx="52.9" ry="66.8"/>
		<path class="st29" d="M751.5,513.6c16,9.8,28.3,28.8,31.6,51.9c5.2,36.5-14,69.5-42.9,73.6c-8.6,1.2-17.3-0.2-25.1-4
			c9,5.7,19.7,8.1,30.2,6.7c28.9-4.1,48.1-37.1,42.9-73.6C784.5,542.7,769.8,522.2,751.5,513.6z"/>
	</g>
	<g>
		
			<ellipse transform="matrix(0.9155 -0.4023 0.4023 0.9155 -78.8857 238.4196)" class="st39" cx="528.2" cy="307" rx="179.9" ry="104.7"/>
		<g class="st40">
			
				<ellipse transform="matrix(0.8711 -0.4911 0.4911 0.8711 -57.246 294.8538)" class="st0" cx="533.1" cy="256.5" rx="86.7" ry="25.6"/>
			
				<ellipse transform="matrix(0.974 -0.2267 0.2267 0.974 -60.9783 104.1885)" class="st0" cx="423.2" cy="317.6" rx="22.4" ry="25.9"/>
		</g>
	</g>
	
		<linearGradient id="SVGID_6_" gradientUnits="userSpaceOnUse" x1="-708.1117" y1="-187.9193" x2="-581.6217" y2="-187.9193" gradientTransform="matrix(0.6988 0.1736 0.1663 -0.6696 794.9713 444.1765)">
		<stop  offset="0" style="stop-color:#FFFFFF"/>
		<stop  offset="1" style="stop-color:#FFFFFF;stop-opacity:0.2"/>
	</linearGradient>
	<path class="st41" d="M268.7,447.1c10.6-42.6,39-72.2,63.4-66.1c24.4,6.1,35.7,45.5,25.1,88.1c-10.6,42.6-39,72.2-63.4,66.1
		S258.1,489.7,268.7,447.1z"/>
	<g>
		
			<ellipse transform="matrix(0.2703 -0.9628 0.9628 0.2703 -206.4727 630.9265)" class="st28" cx="313" cy="451.7" rx="69" ry="37.1"/>
		<path class="st29" d="M346,397.3c6.4,14.6,7.1,36.9,0.6,60.1c-10.3,36.7-34.6,61.9-54.4,56.3c-5.9-1.7-10.8-5.9-14.4-12.1
			c3.7,8.4,9.3,14.3,16.5,16.3c19.8,5.5,44.2-19.7,54.4-56.4C355.9,436,354.4,411.6,346,397.3z"/>
	</g>
	<g>
		
			<ellipse transform="matrix(0.3731 -0.9278 0.9278 0.3731 -234.1604 671.8766)" class="st28" cx="380.1" cy="509.2" rx="26.6" ry="17.4"/>
		<path class="st29" d="M396.3,490.3c2.6,6.2,2.5,14.9-1,23.6c-5.5,13.6-17.1,21.8-26,18.2c-2.7-1.1-4.9-3.2-6.3-5.8
			c1.3,3.4,3.9,6.1,7.2,7.6c8.9,3.6,20.5-4.5,26-18.2C400,506.1,399.8,496.5,396.3,490.3z"/>
	</g>
	<g>
		<ellipse class="st28" cx="276.7" cy="553.4" rx="8.7" ry="9.5"/>
		<path class="st29" d="M280.7,545c2.5,1.8,4,4.8,4,7.9c0,5.2-3.9,9.4-8.7,9.4c-1.4,0-2.8-0.4-4-1c1.4,1,3.1,1.5,4.8,1.5
			c4.8,0,8.7-4.2,8.7-9.5C285.5,549.9,283.7,546.7,280.7,545z"/>
	</g>
	
		<linearGradient id="SVGID_7_" gradientUnits="userSpaceOnUse" x1="-696.9106" y1="-256.6164" x2="-570.4106" y2="-256.6164" gradientTransform="matrix(0.7298 0.1226 0.111 -0.6607 836.7021 560.5126)">
		<stop  offset="0" style="stop-color:#FFFFFF"/>
		<stop  offset="1" style="stop-color:#FFFFFF;stop-opacity:0.2"/>
	</linearGradient>
	<path class="st42" d="M299.8,644.6c7.1-42.1,33.4-72.8,58.9-68.5s40.3,41.9,33.3,84c-7.1,42.1-33.4,72.8-58.9,68.5
		C307.7,724.3,292.8,686.7,299.8,644.6z"/>
	<g>
		
			<ellipse transform="matrix(0.1657 -0.9862 0.9862 0.1657 -362.8466 884.0867)" class="st28" cx="341.1" cy="656.5" rx="67.3" ry="38.8"/>
		<path class="st29" d="M368.6,600.6c8.4,13.6,11.9,35.2,7.9,58.4c-6.2,36.6-28.3,63.4-49.4,59.9c-6.3-1.1-11.9-4.8-16.3-10.4
			c4.9,7.8,11.3,13,19.1,14.3c21.1,3.5,43.2-23.3,49.4-59.9C383.7,637.4,379.1,613.7,368.6,600.6z"/>
	</g>
	<g>
		
			<ellipse transform="matrix(0.8834 -0.4687 0.4687 0.8834 -212.065 299.3788)" class="st28" cx="495.5" cy="575.8" rx="28.3" ry="32.3"/>
		<path class="st29" d="M493.5,544.3c9.5,1.5,18.7,7.9,24,17.8c8.3,15.8,3.9,34.5-9.9,41.8c-4.1,2.1-8.6,3.1-13.2,2.9
			c5.5,0.9,11.2,0,16.2-2.6c13.8-7.3,18.2-26,9.9-41.8C514.6,551.5,504.1,544.8,493.5,544.3z"/>
	</g>
	
		<linearGradient id="SVGID_8_" gradientUnits="userSpaceOnUse" x1="14.0529" y1="-898.3274" x2="140.5429" y2="-898.3274" gradientTransform="matrix(0.6911 0.2353 0.2353 -0.6911 1037.3806 -32.411)">
		<stop  offset="0" style="stop-color:#FFFFFF"/>
		<stop  offset="1" style="stop-color:#FFFFFF;stop-opacity:0.2"/>
	</linearGradient>
	<path class="st43" d="M837.4,592.3c14.8-43.5,46.5-72.1,70.7-63.8c24.3,8.3,31.9,50.2,17.1,93.7c-14.8,43.5-46.5,72.1-70.7,63.8
		C830.3,677.7,822.6,635.8,837.4,592.3z"/>
	
		<ellipse transform="matrix(0.3223 -0.9466 0.9466 0.3223 22.5012 1245.8356)" class="st28" cx="881.3" cy="607.2" rx="74.2" ry="37.2"/>
	
		<linearGradient id="SVGID_9_" gradientUnits="userSpaceOnUse" x1="-214.1818" y1="1656.3575" x2="-87.6918" y2="1656.3575" gradientTransform="matrix(0.7396 -0.175 -0.1036 -0.4379 1007.6838 1428.8468)">
		<stop  offset="0" style="stop-color:#FFFFFF"/>
		<stop  offset="1" style="stop-color:#FFFFFF;stop-opacity:0.2"/>
	</linearGradient>
	<path class="st44" d="M711.5,680.2c25.7-6.1,51.8,11.4,58.4,39s-9,54.9-34.7,61c-25.7,6.1-51.8-11.4-58.4-39
		C670.3,713.6,685.8,686.3,711.5,680.2z"/>
	<g>
		<ellipse class="st28" cx="728.8" cy="727.9" rx="36.4" ry="41.1"/>
		<path class="st29" d="M745.6,691.3c9.9,7.3,16.5,20,16.5,34.4c0,22.7-16.3,41.1-36.4,41.1c-5.9,0-11.7-1.6-16.8-4.6
			c5.7,4.3,12.7,6.7,19.9,6.7c20.1,0,36.4-18.4,36.4-41.1C765.3,712,757.3,698.2,745.6,691.3z"/>
	</g>
	<g>
		<ellipse class="st28" cx="585.6" cy="803.9" rx="14.2" ry="16.1"/>
		<path class="st29" d="M592.1,789.6c4.1,3.2,6.5,8.2,6.4,13.5c0,8.9-6.3,16.1-14.2,16.1c-2.3,0-4.5-0.6-6.5-1.8
			c2.2,1.7,4.9,2.6,7.8,2.6c7.8,0,14.2-7.2,14.2-16.1C599.9,798.1,597,792.7,592.1,789.6z"/>
	</g>
	<g>
		<ellipse class="st28" cx="576.8" cy="693.1" rx="17.4" ry="18.7"/>
		<path class="st29" d="M584.8,676.5c5,3.6,7.9,9.4,7.9,15.6c0,10.3-7.8,18.6-17.4,18.6c-2.8,0-5.6-0.7-8-2.1c2.8,2,6.1,3,9.5,3
			c9.6,0,17.3-8.3,17.3-18.7C594.2,686.3,590.7,679.9,584.8,676.5z"/>
	</g>
	<g>
		
			<ellipse transform="matrix(0.5174 -0.8557 0.8557 0.5174 -460.0343 931.4836)" class="st28" cx="595.9" cy="873.6" rx="32.4" ry="28.5"/>
		<path class="st29" d="M616.7,856.9c3.6,8.9,2.8,20.1-3,29.7c-9.2,15.2-27.6,21-40.9,12.9c-3.9-2.4-7.1-5.8-9.3-9.8
			c2,5.2,5.7,9.6,10.5,12.5c13.4,8.1,31.7,2.3,40.9-12.9C621.3,878.7,621.7,866.2,616.7,856.9z"/>
	</g>
	<g>
		
			<ellipse transform="matrix(0.8444 -0.5357 0.5357 0.8444 -312.3276 370.7421)" class="st28" cx="482.1" cy="723.1" rx="12.9" ry="14.5"/>
		<path class="st29" d="M480.2,709.2c4.7,0.4,8.9,3.1,11.4,7.1c4.3,6.8,2.9,15.3-3.1,19.1c-1.8,1.1-3.8,1.7-5.9,1.8
			c2.5,0.2,5.1-0.4,7.2-1.8c6-3.8,7.4-12.4,3.1-19.1C490.3,711.9,485.4,709.2,480.2,709.2z"/>
	</g>
	<g>
		
			<ellipse transform="matrix(0.7308 -0.6826 0.6826 0.7308 -379.4532 724.5844)" class="st28" cx="728.8" cy="843.3" rx="15.8" ry="17.8"/>
		<path class="st29" d="M723.3,826.8c5.8-0.5,11.5,1.7,15.4,6c6.7,7.2,7,17.8,0.6,23.8c-1.9,1.7-4.2,2.9-6.6,3.5
			c3.1-0.3,6-1.7,8.3-3.8c6.4-5.9,6.1-16.6-0.6-23.8C736.1,827.7,729.6,825.6,723.3,826.8z"/>
	</g>
	<g>
		<ellipse class="st28" cx="428.5" cy="831" rx="17.4" ry="18.8"/>
		<path class="st29" d="M436.5,814.3c5,3.7,7.9,9.5,7.9,15.8c0,10.4-7.8,18.8-17.4,18.8c-2.8,0-5.6-0.7-8-2.1c2.8,2,6.1,3.1,9.5,3.1
			c9.6,0,17.4-8.4,17.4-18.9C445.9,824.1,442.4,817.7,436.5,814.3z"/>
	</g>
	<g>
		<ellipse class="st28" cx="381.1" cy="809.7" rx="11.1" ry="14.6"/>
		<path class="st29" d="M386.2,796.7c3.3,3.2,5.1,7.6,5,12.2c0,8-5,14.6-11.1,14.6c-1.8,0-3.6-0.6-5.1-1.6c1.7,1.5,3.8,2.4,6.1,2.4
			c6.1,0,11.1-6.5,11.1-14.6C392.2,804,389.7,799.2,386.2,796.7z"/>
	</g>
	<g>
		<ellipse class="st28" cx="569.1" cy="735.5" rx="7.1" ry="7.6"/>
		<path class="st29" d="M572.4,728.7c2,1.5,3.2,3.9,3.2,6.4c0.1,4.1-3,7.5-7.1,7.6c-1.1,0-2.3-0.3-3.3-0.9c1.1,0.8,2.5,1.2,3.9,1.2
			c4.1-0.2,7.2-3.6,7.1-7.6C576.3,732.7,574.8,730.1,572.4,728.7z"/>
	</g>
	<g>
		<ellipse class="st28" cx="814.1" cy="764.3" rx="8.7" ry="9.5"/>
		<path class="st29" d="M818.1,755.9c2.5,1.8,4,4.8,4,7.9c0,5.2-3.9,9.5-8.7,9.5c-1.4,0-2.8-0.4-4-1.1c1.4,1,3.1,1.5,4.8,1.5
			c4.8,0,8.7-4.2,8.7-9.4C822.9,760.8,821.1,757.6,818.1,755.9z"/>
	</g>
	<g>
		<ellipse class="st28" cx="481.8" cy="803.9" rx="8.7" ry="9.5"/>
		<path class="st29" d="M485.9,795.5c2.5,1.8,4,4.8,4,7.9c0,5.2-3.9,9.4-8.7,9.4c-1.4,0-2.8-0.3-4-1c1.4,1,3.1,1.5,4.8,1.5
			c4.8,0,8.7-4.2,8.7-9.5C490.7,800.5,488.8,797.3,485.9,795.5z"/>
	</g>
</g>
</svg>
